<?xml version="1.0" encoding="UTF-8" standalone="no"?>
<!DOCTYPE svg PUBLIC "-//W3C//DTD SVG 1.1//EN" "http://www.w3.org/Graphics/SVG/1.1/DTD/svg11.dtd">
<svg width="100%" height="100%" viewBox="0 0 1000 1000" version="1.1" xmlns="http://www.w3.org/2000/svg" xmlns:xlink="http://www.w3.org/1999/xlink" xml:space="preserve" xmlns:serif="http://www.serif.com/" style="fill-rule:evenodd;clip-rule:evenodd;stroke-linejoin:round;stroke-miterlimit:2;">
    <g id="Fridge" transform="matrix(5.25929,0,0,5.25929,0,5.68434e-14)">
        <rect x="0" y="0" width="190.14" height="190.14" style="fill:none;"/>
        <g transform="matrix(0.19014,0,0,0.19014,0,-1.08082e-14)">
            <path d="M139.318,907.445L139.318,166.475C139.318,133.61 152.374,102.09 175.613,78.851C198.853,55.611 230.372,42.555 263.238,42.555L736.762,42.555C769.628,42.555 801.147,55.611 824.387,78.851C847.626,102.09 860.682,133.61 860.682,166.475L860.682,907.445C860.682,935.059 838.296,957.445 810.682,957.445L189.318,957.445C161.704,957.445 139.318,935.059 139.318,907.445ZM239.318,488.998L239.318,857.445L760.682,857.445L760.682,488.998L380.255,488.998L380.255,763.535C380.255,791.131 357.85,813.535 330.255,813.535C302.659,813.535 280.255,791.131 280.255,763.535L280.255,488.998L239.318,488.998ZM760.682,388.998L760.682,166.475C760.682,160.131 758.162,154.047 753.676,149.561C749.19,145.076 743.106,142.555 736.762,142.555L263.238,142.555C256.894,142.555 250.81,145.076 246.324,149.561C241.838,154.047 239.318,160.131 239.318,166.475L239.318,388.998L280.255,388.998L280.255,261.27C280.255,233.674 302.659,211.27 330.255,211.27C357.85,211.27 380.255,233.674 380.255,261.27L380.255,388.998L760.682,388.998Z" style="fill:white;"/>
        </g>
    </g>
</svg>
