<?xml version="1.0" encoding="UTF-8" standalone="no"?>
<!DOCTYPE svg PUBLIC "-//W3C//DTD SVG 1.1//EN" "http://www.w3.org/Graphics/SVG/1.1/DTD/svg11.dtd">
<svg width="100%" height="100%" viewBox="0 0 1000 1000" version="1.1" xmlns="http://www.w3.org/2000/svg" xmlns:xlink="http://www.w3.org/1999/xlink" xml:space="preserve" xmlns:serif="http://www.serif.com/" style="fill-rule:evenodd;clip-rule:evenodd;stroke-linejoin:round;stroke-miterlimit:2;">
    <g transform="matrix(1,0,0,1,-4244.62,-1094.68)">
        <g id="Settings" transform="matrix(-5.25929,0,0,5.25929,5244.62,1094.68)">
            <rect x="0" y="0" width="190.14" height="190.14" style="fill:none;"/>
            <g transform="matrix(-0.19014,0,0,0.19014,997.21,-208.333)">
                <path d="M4578.57,1272.55L4609.7,1162.04C4614.77,1144.07 4629.41,1130.42 4647.69,1126.64C4711.63,1113.4 4777.61,1113.4 4841.55,1126.64C4859.82,1130.42 4874.47,1144.07 4879.53,1162.04L4910.67,1272.55C4920.91,1277.82 4930.89,1283.58 4940.57,1289.81L5051.84,1261.52C5069.93,1256.92 5089.08,1262.78 5101.5,1276.72C5144.93,1325.47 5177.92,1382.61 5198.42,1444.6C5204.28,1462.33 5199.79,1481.84 5186.76,1495.2L5106.62,1577.42C5107.18,1588.92 5107.18,1600.44 5106.62,1611.95L5186.76,1694.17C5199.79,1707.53 5204.28,1727.04 5198.42,1744.77C5177.92,1806.76 5144.93,1863.9 5101.5,1912.65C5089.08,1926.59 5069.93,1932.45 5051.84,1927.85L4940.57,1899.56C4930.89,1905.79 4920.91,1911.55 4910.67,1916.82L4879.53,2027.33C4874.47,2045.3 4859.82,2058.95 4841.55,2062.73C4777.61,2075.97 4711.63,2075.97 4647.69,2062.73C4629.41,2058.95 4614.77,2045.3 4609.7,2027.33L4578.57,1916.82C4568.33,1911.55 4558.35,1905.79 4548.66,1899.56L4437.4,1927.85C4419.31,1932.45 4400.16,1926.59 4387.74,1912.65C4344.31,1863.9 4311.32,1806.76 4290.82,1744.77C4284.95,1727.04 4289.45,1707.53 4302.48,1694.17L4382.62,1611.95C4382.06,1600.45 4382.06,1588.92 4382.62,1577.42L4302.48,1495.2C4289.45,1481.84 4284.95,1462.33 4290.82,1444.6C4311.32,1382.61 4344.31,1325.47 4387.74,1276.72C4400.16,1262.78 4419.31,1256.92 4437.4,1261.52L4548.66,1289.81C4558.35,1283.58 4568.33,1277.82 4578.57,1272.55ZM4791.88,1219.68C4760.5,1215.72 4728.74,1215.72 4697.36,1219.68L4668.67,1321.52C4664.59,1336 4654.21,1347.87 4640.4,1353.84C4621.88,1361.86 4604.35,1371.98 4588.16,1384.01C4576.08,1392.98 4560.6,1396.03 4546.02,1392.32L4443.49,1366.25C4424.37,1391.45 4408.49,1418.95 4396.23,1448.11L4470.07,1523.88C4480.57,1534.65 4485.66,1549.58 4483.94,1564.52C4481.62,1584.56 4481.62,1604.81 4483.94,1624.85C4485.66,1639.79 4480.57,1654.72 4470.07,1665.49L4396.23,1741.26C4408.49,1770.41 4424.36,1797.92 4443.49,1823.12L4546.02,1797.05C4560.6,1793.34 4576.08,1796.39 4588.16,1805.36C4604.35,1817.39 4621.88,1827.51 4640.4,1835.53C4654.21,1841.5 4664.59,1853.37 4668.67,1867.85L4697.36,1969.69C4728.74,1973.65 4760.5,1973.65 4791.88,1969.69L4820.57,1867.85C4824.65,1853.37 4835.03,1841.5 4848.84,1835.53C4867.36,1827.51 4884.89,1817.39 4901.08,1805.36C4913.16,1796.39 4928.64,1793.34 4943.22,1797.05L5045.75,1823.12C5064.87,1797.92 5080.75,1770.42 5093.01,1741.26L5019.17,1665.49C5008.67,1654.72 5003.57,1639.79 5005.3,1624.85C5007.62,1604.81 5007.62,1584.56 5005.3,1564.52C5003.57,1549.58 5008.67,1534.65 5019.17,1523.88L5093.01,1448.11C5080.75,1418.95 5064.88,1391.45 5045.75,1366.25L4943.22,1392.32C4928.64,1396.03 4913.16,1392.98 4901.08,1384.01C4884.89,1371.98 4867.36,1361.86 4848.84,1353.84C4835.03,1347.87 4824.65,1336 4820.57,1321.52L4791.88,1219.68ZM4744.62,1377.77C4624.9,1377.77 4527.71,1474.97 4527.71,1594.68C4527.71,1714.4 4624.9,1811.6 4744.62,1811.6C4864.34,1811.6 4961.53,1714.4 4961.53,1594.68C4961.53,1474.97 4864.34,1377.77 4744.62,1377.77ZM4744.62,1477.77C4809.15,1477.77 4861.53,1530.16 4861.53,1594.68C4861.53,1659.21 4809.15,1711.6 4744.62,1711.6C4680.1,1711.6 4627.71,1659.21 4627.71,1594.68C4627.71,1530.16 4680.1,1477.77 4744.62,1477.77Z" style="fill:white;"/>
            </g>
        </g>
    </g>
</svg>
